# xmcd
#
# Track frame offsets:
#	182
#	13445
#	27557
#	41145
#	56645
#	69132
#	83257
#	97670
#	110870
#	125670
#	141482
#	152845
#	167957
#	184595
#	199045
#	208770
#
# Disc length: 2929 seconds
#
# Revision: 1
# Processed by: cddbd v1.5.1PL0 Copyright (c) Steve Scherf et al.
# Submitted via: audiograbber 1.83.01
#
DISCID=e50b6f10
DTITLE=Il dizionario della canzone italiana - L'umorismo due
DYEAR=1900
DGENRE=Humour
TTITLE0=Billi, Romigioli - Marilou non canta più
TTITLE1=Vanni, Romigioli - La famiglia Brambilla
TTITLE2=Leo Brandi - Sequezia di Spezia
TTITLE3=Rodolfo De Angelis - Ho perduto la cagnetta
TTITLE4=Rodolfo De angelis - Non mi piace la tua famiglia
TTITLE5=Rodolfo De angelis - La carioca
TTITLE6=Ettore Petrolini - Fortunello
TTITLE7=Ettore Petrolini - Amleto
TTITLE8=Ettore Petrolini - Roba seria
TTITLE9=Vittorio De Sica - Boy
TTITLE10=Gigi Beccaria - L'hanno ritrovata (ma chi)...Zazà
TTITLE11=Nilla Pizzi - Chella llà
TTITLE12=Niila Pizzi, Luciano Benevene, Duo Fasano - Avanti e indré
TTITLE13=Ernesto Bonino, Trio Aurora - Il piccolo naviglio
TTITLE14=Nino Taranto - M'aggia curà
TTITLE15=Gino Franzi - Come siamo cretini
EXTD=
EXTT0=
EXTT1=
EXTT2=
EXTT3=
EXTT4=
EXTT5=
EXTT6=
EXTT7=
EXTT8=
EXTT9=
EXTT10=
EXTT11=
EXTT12=
EXTT13=
EXTT14=
EXTT15=
PLAYORDER=
